<svg xmlns="http://www.w3.org/2000/svg" viewBox="0 0 31.1637593725 8">

    <path
        d="
        M0 0 h1 v1 h-1
        M3 0 h2 v1 h-2
        M7 0 h1 v1 h-1
        M0 7 h1 v1 h-1
        M7 7 h1 v1 h-1
    z"
        fill="rgb(0, 0, 0)" shape-rendering="crispEdges" />

    <path
        d="
        M1 0 h2 v1 h-2
        M5 0 h2 v1 h-2
        M0 1 h1 v1 h-1
        M3 1 h2 v1 h-2
        M7 1 h1 v1 h-1
        M0 4 h1 v3 h-1
        M7 4 h1 v3 h-1
        M1 7 h1 v1 h-1
        M3 7 h2 v1 h-2
        M6 7 h1 v1 h-1
    z"
        fill="rgb(0, 0, 72)" shape-rendering="crispEdges" />

    <path
        d="
        M1 1 h2 v1 h-2
        M5 1 h2 v1 h-2
        M0 2 h1 v2 h-1
        M3 2 h2 v2 h-2
        M7 2 h1 v2 h-1
        M1 4 h2 v1 h-1 v2 h-1
        M7 4 h-2 v1 h1 v2 h1
        M3 6 h2 v1 h-2
        M2 7 h1 v1 h-1
        M5 7 h1 v1 h-1
    z"
        fill="rgb(0, 0, 193)" shape-rendering="crispEdges" />

    <path
        d="
        M1 2 h2 v2 h-2
        M5 2 h2 v2 h-2
        M3 4 h2 v2 h-2 M5 5 h1 v2 h-1 M2 5 h1 v2 h-1
    z"
        fill="rgb(0, 255, 255)" shape-rendering="crispEdges" />

    <svg xmlns="http://www.w3.org/2000/svg" viewBox="0 10 137.60000610351562 37.25" x="9" y="1" data-asc="0.935"
        width="22.1637593725" height="6">
        <defs />
        <g fill="#00bcff">
            <g transform="translate(0, 0)">
                <path
                    d="M1.25 46.75Q0.70 46.75 0.35 46.38Q0 46 0 45.50L0 13Q0 12.45 0.35 12.10Q0.70 11.75 1.25 11.75L7.85 11.75Q8.40 11.75 8.75 12.10Q9.10 12.45 9.10 13L9.10 39.20L24.25 39.20Q24.80 39.20 25.15 39.58Q25.50 39.95 25.50 40.50L25.50 45.50Q25.50 46 25.15 46.38Q24.80 46.75 24.25 46.75L1.25 46.75ZM41.30 47.25Q35.40 47.25 31.90 44.05Q28.40 40.85 28.25 34.55Q28.25 34.20 28.25 33.65Q28.25 33.10 28.25 32.80Q28.40 28.85 30.03 26.02Q31.65 23.20 34.53 21.72Q37.40 20.25 41.25 20.25Q45.65 20.25 48.53 22Q51.40 23.75 52.85 26.75Q54.30 29.75 54.30 33.60L54.30 34.80Q54.30 35.35 53.95 35.70Q53.60 36.05 53.05 36.05L37.05 36.05Q37.05 36.10 37.05 36.20Q37.05 36.30 37.05 36.40Q37.10 37.85 37.58 39.05Q38.05 40.25 38.98 40.95Q39.90 41.65 41.25 41.65Q42.25 41.65 42.92 41.33Q43.60 41 44.05 40.58Q44.50 40.15 44.75 39.85Q45.20 39.30 45.48 39.17Q45.75 39.05 46.35 39.05L52.55 39.05Q53.05 39.05 53.38 39.35Q53.70 39.65 53.65 40.15Q53.60 41 52.80 42.20Q52 43.40 50.48 44.58Q48.95 45.75 46.65 46.50Q44.35 47.25 41.30 47.25M37.05 31.10L45.50 31.10L45.50 31Q45.50 29.35 45.03 28.18Q44.55 27 43.58 26.35Q42.60 25.70 41.25 25.70Q39.95 25.70 39 26.35Q38.05 27 37.55 28.18Q37.05 29.35 37.05 31L37.05 31.10ZM60.25 46.75Q59.70 46.75 59.35 46.38Q59.00 46 59.00 45.50L59.00 22Q59.00 21.45 59.35 21.10Q59.70 20.75 60.25 20.75L66.15 20.75Q66.70 20.75 67.05 21.10Q67.40 21.45 67.40 22L67.40 45.50Q67.40 46 67.05 46.38Q66.70 46.75 66.15 46.75L60.25 46.75M60.20 17Q59.65 17 59.30 16.65Q58.95 16.30 58.95 15.75L58.95 11.25Q58.95 10.75 59.30 10.38Q59.65 10 60.20 10L66.20 10Q66.70 10 67.08 10.38Q67.45 10.75 67.45 11.25L67.45 15.75Q67.45 16.30 67.08 16.65Q66.70 17 66.20 17L60.20 17ZM88.15 47.25Q83.55 47.25 80.15 45.75Q76.75 44.25 74.85 41.23Q72.95 38.20 72.75 33.65Q72.70 31.50 72.70 29.32Q72.70 27.15 72.75 25Q72.95 20.50 74.88 17.42Q76.80 14.35 80.23 12.80Q83.65 11.25 88.15 11.25Q92.70 11.25 96.10 12.80Q99.50 14.35 101.45 17.42Q103.40 20.50 103.55 25Q103.65 27.15 103.65 29.32Q103.65 31.50 103.55 33.65Q103.40 38.20 101.48 41.23Q99.55 44.25 96.15 45.75Q92.75 47.25 88.15 47.25M88.15 40.05Q90.80 40.05 92.48 38.45Q94.15 36.85 94.25 33.35Q94.35 31.15 94.35 29.20Q94.35 27.25 94.25 25.15Q94.15 22.80 93.38 21.32Q92.60 19.85 91.25 19.15Q89.90 18.45 88.15 18.45Q86.45 18.45 85.10 19.15Q83.75 19.85 82.95 21.32Q82.15 22.80 82.05 25.15Q82.00 27.25 82.00 29.20Q82.00 31.15 82.05 33.35Q82.20 36.85 83.88 38.45Q85.55 40.05 88.15 40.05ZM122.50 47.25Q117.50 47.25 114.20 45.83Q110.90 44.40 109.20 42.10Q107.50 39.80 107.40 37.20Q107.40 36.80 107.73 36.48Q108.05 36.15 108.50 36.15L114.80 36.15Q115.50 36.15 115.88 36.40Q116.25 36.65 116.55 37.05Q116.95 37.80 117.68 38.50Q118.40 39.20 119.60 39.63Q120.80 40.05 122.50 40.05Q125.40 40.05 126.88 39.15Q128.35 38.25 128.35 36.70Q128.35 35.55 127.55 34.85Q126.75 34.15 124.98 33.58Q123.20 33 120.25 32.40Q116.45 31.60 113.78 30.32Q111.10 29.05 109.70 26.97Q108.30 24.90 108.30 21.80Q108.30 18.75 110.03 16.35Q111.75 13.95 114.85 12.60Q117.95 11.25 122.20 11.25Q125.65 11.25 128.28 12.15Q130.90 13.05 132.70 14.55Q134.50 16.05 135.43 17.72Q136.35 19.40 136.40 21Q136.40 21.40 136.13 21.72Q135.85 22.05 135.35 22.05L128.75 22.05Q128.20 22.05 127.80 21.85Q127.40 21.65 127.10 21.20Q126.80 20.10 125.53 19.27Q124.25 18.45 122.20 18.45Q120.00 18.45 118.78 19.22Q117.55 20 117.55 21.60Q117.55 22.60 118.23 23.35Q118.90 24.10 120.48 24.65Q122.05 25.20 124.80 25.80Q129.35 26.65 132.15 27.93Q134.95 29.20 136.28 31.23Q137.60 33.25 137.60 36.30Q137.60 39.70 135.65 42.15Q133.70 44.60 130.33 45.92Q126.95 47.25 122.50 47.25Z" />
            </g>
        </g>
    </svg>

</svg>